<?xml version="1.0" standalone="no"?>
<!DOCTYPE svg PUBLIC "-//W3C//DTD SVG 20010904//EN"
 "http://www.w3.org/TR/2001/REC-SVG-20010904/DTD/svg10.dtd">
<svg version="1.0" xmlns="http://www.w3.org/2000/svg"
 width="512.000000pt" height="512.000000pt" viewBox="0 0 512.000000 512.000000"
 preserveAspectRatio="xMidYMid meet">

<g transform="translate(0.000000,512.000000) scale(0.100000,-0.100000)"
fill="#000000" stroke="none">
<path d="M602 5103 c-12 -10 -152 -295 -311 -633 l-291 -616 0 -1902 0 -1903
25 -24 24 -25 2511 0 2511 0 24 25 25 24 0 451 0 451 -77 -3 -78 -3 -3 -393
-2 -392 -965 0 -965 0 0 493 c-1 519 0 510 -47 535 -31 17 -815 17 -846 0 -47
-25 -46 -16 -47 -535 l0 -493 -965 0 -965 0 0 1800 0 1800 300 0 300 0 0 75 0
75 -280 0 c-154 0 -280 2 -280 4 0 2 112 239 248 527 l248 524 737 3 737 2 0
-37 c0 -54 -70 -995 -75 -1010 -3 -10 -126 -13 -570 -13 l-565 0 0 -75 0 -75
565 0 565 0 0 -494 0 -495 24 -28 24 -28 422 0 422 0 24 28 24 28 0 495 0 494
965 0 965 0 0 -1305 0 -1305 80 0 80 0 0 1352 0 1352 -291 616 c-159 338 -299
623 -311 633 -19 16 -127 17 -1958 17 -1831 0 -1939 -1 -1958 -17z m4070 -662
c136 -288 248 -525 248 -527 0 -2 -425 -4 -945 -4 -748 0 -947 3 -950 13 -5
15 -75 956 -75 1010 l0 37 737 -2 737 -3 248 -524z"/>
<path d="M3259 3371 l-29 -29 0 -547 0 -547 29 -29 30 -29 706 2 707 3 19 24
c18 22 19 47 19 576 0 529 -1 554 -19 576 l-19 24 -707 3 -706 2 -30 -29z
m1331 -576 l0 -445 -600 0 -600 0 0 445 0 445 600 0 600 0 0 -445z"/>
<path d="M3552 3027 c-27 -29 -28 -67 -3 -98 l19 -24 415 -3 415 -3 28 24 c35
31 38 82 5 109 -22 17 -50 18 -440 18 l-418 0 -21 -23z"/>
<path d="M3555 2665 c-32 -31 -33 -74 -2 -103 23 -22 26 -22 436 -22 271 0
419 4 432 11 46 24 42 105 -7 128 -17 8 -149 11 -430 11 l-405 0 -24 -25z"/>
<path d="M546 1531 c-140 -139 -150 -152 -150 -187 0 -44 31 -74 77 -74 26 0
45 14 104 72 l73 72 0 -315 0 -316 23 -21 c25 -23 66 -28 97 -12 35 19 40 64
40 363 l0 290 69 -66 c58 -56 75 -67 103 -67 43 0 78 34 78 76 0 25 -24 54
-153 182 -126 125 -159 152 -182 152 -24 0 -56 -27 -179 -149z"/>
<path d="M1317 1543 c-158 -157 -174 -181 -156 -224 14 -34 36 -49 76 -49 21
0 45 17 100 72 l73 72 0 -315 0 -316 23 -21 c25 -23 66 -28 97 -12 35 19 40
64 40 363 l0 290 69 -66 c58 -56 75 -67 103 -67 43 0 78 34 78 76 0 25 -24 54
-153 182 -126 125 -159 152 -182 152 -23 0 -54 -26 -168 -137z"/>
<path d="M426 609 c-26 -20 -34 -57 -20 -94 17 -44 26 -45 701 -45 494 0 644
3 663 13 36 18 53 58 40 93 -21 56 7 53 -701 54 -649 0 -657 0 -683 -21z"/>
</g>
</svg>
