<?xml version="1.0" encoding="iso-8859-1"?>
<!-- Uploaded to: SVG Repo, www.svgrepo.com, Generator: SVG Repo Mixer Tools -->
<svg version="1.1" id="Layer_1" xmlns="http://www.w3.org/2000/svg" xmlns:xlink="http://www.w3.org/1999/xlink" 
	 viewBox="0 0 512 512" xml:space="preserve">
<rect x="50.144" y="361.567" style="fill:#E7ECED;" width="84.454" height="42.227"/>
<rect x="50.144" y="319.34" style="fill:#AFB6BB;" width="84.454" height="42.227"/>
<rect x="118.763" y="192.66" style="fill:#546A79;" width="137.237" height="42.227"/>
<polygon style="fill:#9DA4A9;" points="256,113.485 256,192.66 118.763,192.66 118.763,113.485 118.763,65.979 256,65.979 "/>
<polygon style="fill:#A26234;" points="504.082,65.979 504.082,446.021 366.845,446.021 366.845,113.485 366.845,65.979 
	403.794,65.979 403.794,372.124 467.134,372.124 467.134,65.979 "/>
<rect x="403.794" y="65.979" style="fill:#546A79;" width="63.34" height="306.144"/>
<path style="fill:#A58763;" d="M256,113.485v79.175v42.227H118.763V192.66v-79.175H7.918v332.536h358.928V113.485H256z
	 M134.598,361.567v42.227H50.144v-42.227V319.34h84.454V361.567z"/>
<g>
	<rect x="256" y="65.979" style="fill:#69573E;" width="110.845" height="47.505"/>
	<rect x="7.918" y="65.979" style="fill:#69573E;" width="110.845" height="47.505"/>
</g>
<rect x="118.763" y="65.979" style="fill:#AFB6BB;" width="68.619" height="126.68"/>
<path style="fill:#907656;" d="M118.763,234.887V192.66v-79.175H7.918v332.536h179.464V234.887H118.763z M134.598,403.794H50.144
	v-42.227V319.34h84.454v42.227V403.794z"/>
<g>
	<rect x="271.835" y="395.876" style="fill:#FFFFFF;" width="63.34" height="15.835"/>
	<rect x="292.948" y="358.928" style="fill:#FFFFFF;" width="42.227" height="15.835"/>
	<rect x="245.443" y="321.979" style="fill:#FFFFFF;" width="89.732" height="15.835"/>
	<rect x="240.165" y="395.876" style="fill:#FFFFFF;" width="21.113" height="15.835"/>
	<rect x="261.278" y="358.928" style="fill:#FFFFFF;" width="21.113" height="15.835"/>
</g>
<path d="M0,58.062v395.876h512V58.062H0z M358.928,73.897v31.67h-95.01v-31.67H358.928z M126.68,200.577h121.402v26.392H126.68
	V200.577z M248.082,73.897v110.845H126.68V73.897H248.082z M110.845,73.897v31.67h-95.01v-31.67H110.845z M15.835,438.103V121.402
	h95.01v121.402h153.072V121.402h95.01v316.701H15.835z M411.711,73.897h47.505v290.309h-47.505V73.897z M496.165,438.103H374.763
	V73.897h21.113v306.144h79.175V73.897h21.113V438.103z"/>
<path d="M42.227,411.711h100.289V311.423H42.227V411.711z M58.062,395.876v-26.392h68.619v26.392H58.062z M126.68,327.258v26.392
	H58.062v-26.392H126.68z"/>
<g>
	<rect x="427.546" y="92.371" style="fill:#FFFFFF;" width="15.835" height="131.959"/>
	<rect x="427.546" y="240.165" style="fill:#FFFFFF;" width="15.835" height="21.113"/>
	<rect x="427.546" y="271.835" style="fill:#FFFFFF;" width="15.835" height="21.113"/>
	<rect x="427.546" y="303.505" style="fill:#FFFFFF;" width="15.835" height="21.113"/>
	<rect x="393.237" y="401.155" style="fill:#FFFFFF;" width="84.454" height="15.835"/>
	<rect x="139.876" y="89.732" style="fill:#FFFFFF;" width="21.113" height="15.835"/>
	<rect x="213.773" y="89.732" style="fill:#FFFFFF;" width="21.113" height="15.835"/>
</g>
</svg>
