<?xml version="1.0" encoding="UTF-8"?>
<svg version="1.1" xmlns="http://www.w3.org/2000/svg" width="512" height="512">
<path d="M0 0 C0.639375 -0.01289062 1.27875 -0.02578125 1.9375 -0.0390625 C5.37617107 1.06808538 6.8408461 2.75975446 9 5.625 C9.588071 8.59356503 9.47655857 11.42639431 9.3125 14.4375 C9.28994141 15.22576172 9.26738281 16.01402344 9.24414062 16.82617188 C9.18554161 18.75993929 9.09586827 20.69272167 9 22.625 C10.85625 22.13580078 10.85625 22.13580078 12.75 21.63671875 C37.8686427 15.22386617 63.21972327 13.39377206 89.0625 13.375 C90.51107895 13.37348938 90.51107895 13.37348938 91.98892212 13.37194824 C153.57831947 13.41519074 153.57831947 13.41519074 168.5625 26.9375 C169.7690625 28.2678125 169.7690625 28.2678125 171 29.625 C172.09290717 30.68580804 173.1881547 31.74420783 174.28515625 32.80078125 C198.6025788 57.08022266 210.42805841 94.23149954 214 127.625 C214.11085938 128.55828125 214.22171875 129.4915625 214.3359375 130.453125 C215.10504293 138.22732584 215.10208532 146.00623378 215.125 153.8125 C215.12967285 154.91754883 215.1343457 156.02259766 215.13916016 157.16113281 C215.12639585 163.710203 214.80220719 170.12419801 214 176.625 C215.24136719 176.59019531 216.48273438 176.55539063 217.76171875 176.51953125 C219.40363226 176.49138416 221.04556046 176.46408499 222.6875 176.4375 C223.50412109 176.41236328 224.32074219 176.38722656 225.16210938 176.36132812 C229.96391702 176.30300657 233.08779152 176.51353595 237 179.625 C239.15879198 182.27442653 239.09478727 184.40816283 238.8125 187.6875 C238.4137512 190.21134533 238.12098346 191.45452331 236.625 193.5625 C232.95773786 195.96032524 229.55558628 195.72951076 225.3125 195.6875 C224.13300781 195.67847656 222.95351563 195.66945312 221.73828125 195.66015625 C220.83464844 195.64855469 219.93101562 195.63695312 219 195.625 C219.46672119 196.47372681 219.46672119 196.47372681 219.94287109 197.33959961 C233.94279581 222.98900296 244.32918232 249.59622339 250.75 278.125 C250.93667236 278.94049316 251.12334473 279.75598633 251.31567383 280.59619141 C251.95272435 283.59579258 252.48455104 286.60193887 253 289.625 C253.12601593 290.32327911 253.25203186 291.02155823 253.38186646 291.74099731 C256.5820634 310.01205836 256.49698804 328.32205677 256.44604492 346.80639648 C256.4344871 351.20215294 256.45493743 355.59711403 256.48396206 359.99276638 C256.50247303 363.43934511 256.50200368 366.88573753 256.49632454 370.33235359 C256.49617359 371.95192658 256.50202506 373.57151408 256.51461601 375.19103813 C256.59847046 387.71960614 256.12732961 402.64600038 248.44042969 413.16748047 C242.25764295 419.4236223 233.23267452 419.77796964 225 420.75 C223.80632812 420.90597656 222.61265625 421.06195313 221.3828125 421.22265625 C217.2594391 421.74129261 213.1333056 422.19437301 209 422.625 C207.75757538 422.75900711 207.75757538 422.75900711 206.49005127 422.89572144 C189.59632024 424.67318248 172.75218772 424.96961515 155.78466797 424.94067383 C152.85547477 424.93605467 149.92669812 424.94294098 146.99755859 424.96118164 C99.60955719 425.2530689 53.98627353 417.80403246 9 402.625 C9.05800781 403.79417969 9.11601562 404.96335937 9.17578125 406.16796875 C9.22269449 407.7161058 9.26819298 409.26428617 9.3125 410.8125 C9.35439453 411.58142578 9.39628906 412.35035156 9.43945312 413.14257812 C9.53106741 417.41180402 9.38613155 419.1125948 6.73046875 422.63671875 C3.05705828 425.31163424 3.05705828 425.31163424 0 425.25 C-0.639375 425.26289063 -1.27875 425.27578125 -1.9375 425.2890625 C-5.37617107 424.18191462 -6.8408461 422.49024554 -9 419.625 C-9.588071 416.65643497 -9.47655857 413.82360569 -9.3125 410.8125 C-9.27866211 409.63010742 -9.27866211 409.63010742 -9.24414062 408.42382812 C-9.18554161 406.49006071 -9.09586827 404.55727833 -9 402.625 C-9.74233887 402.86621582 -10.48467773 403.10743164 -11.24951172 403.35595703 C-28.66835704 408.98037461 -46.04375853 413.96457838 -64 417.625 C-64.9497168 417.81932617 -65.89943359 418.01365234 -66.87792969 418.21386719 C-93.24452567 423.47983425 -119.68920501 425.14469271 -146.50317383 425.01611328 C-150.08548862 424.99907155 -153.66713139 425.00917778 -157.24942303 425.02644825 C-230.965771 425.32597019 -230.965771 425.32597019 -247 414.625 C-255.86443474 405.76352946 -256.50981282 389.48118991 -256.55578613 377.63812256 C-256.5486157 376.08686838 -256.5404091 374.53561871 -256.53125 372.984375 C-256.53395904 371.32553889 -256.537853 369.66670434 -256.54284668 368.00787354 C-256.54869537 364.54871343 -256.5403439 361.08997034 -256.52148438 357.63085938 C-256.49890904 353.28772779 -256.51208549 348.94558831 -256.53525257 344.60249233 C-256.77340023 291.91683301 -245.36029874 241.68804763 -219 195.625 C-219.88042969 195.65980469 -220.76085937 195.69460937 -221.66796875 195.73046875 C-222.82941406 195.75753906 -223.99085938 195.78460938 -225.1875 195.8125 C-226.33605469 195.84730469 -227.48460937 195.88210937 -228.66796875 195.91796875 C-232.30482581 195.5981982 -234.09030986 194.77175149 -237 192.625 C-239.15879198 189.97557347 -239.09478727 187.84183717 -238.8125 184.5625 C-238.4137512 182.03865467 -238.12098346 180.79547669 -236.625 178.6875 C-233.70240496 176.77657248 -231.156711 176.5033212 -227.76953125 176.52734375 C-226.56586914 176.53217773 -226.56586914 176.53217773 -225.33789062 176.53710938 C-224.50451172 176.54548828 -223.67113281 176.55386719 -222.8125 176.5625 C-221.96751953 176.56701172 -221.12253906 176.57152344 -220.25195312 176.57617188 C-218.16793845 176.58794597 -216.08396023 176.6058811 -214 176.625 C-214.07001221 176.04669434 -214.14002441 175.46838867 -214.2121582 174.87255859 C-216.21446933 156.93142603 -215.57228553 138.47694821 -213 120.625 C-212.88172852 119.79758301 -212.76345703 118.97016602 -212.64160156 118.11767578 C-207.88597179 86.50423357 -195.52381726 58.05811579 -175 33.625 C-174.46632813 32.95726562 -173.93265625 32.28953125 -173.3828125 31.6015625 C-164.59970512 20.81608867 -151.84428414 18.400514 -138.625 16.4375 C-137.6040625 16.27314453 -136.583125 16.10878906 -135.53125 15.93945312 C-120.78298874 13.65698412 -106.07503112 13.42002599 -91.1875 13.4375 C-90.23635315 13.43810425 -89.2852063 13.4387085 -88.30523682 13.43933105 C-61.84756637 13.48489312 -34.34734694 14.31718553 -9 22.625 C-9.08701172 20.87123047 -9.08701172 20.87123047 -9.17578125 19.08203125 C-9.22269449 17.5338942 -9.26819298 15.98571383 -9.3125 14.4375 C-9.3753418 13.28411133 -9.3753418 13.28411133 -9.43945312 12.10742188 C-9.53106741 7.83819598 -9.38613155 6.1374052 -6.73046875 2.61328125 C-3.05705828 -0.06163424 -3.05705828 -0.06163424 0 0 Z " fill="#CA8252" transform="translate(256,43.375)"/>
<path d="M0 0 C60.06 0 120.12 0 182 0 C196.70921209 26.14971039 207.80904777 52.66326144 214.4375 81.9375 C214.77152832 83.40546021 214.77152832 83.40546021 215.11230469 84.90307617 C215.82132741 88.25837052 216.42296031 91.6193876 217 95 C217.19485489 96.07874893 217.19485489 96.07874893 217.39364624 97.17929077 C220.59598442 115.42446031 220.49688486 133.72210821 220.44604492 152.18139648 C220.4344871 156.57715294 220.45493743 160.97211403 220.48396206 165.36776638 C220.50247303 168.81434511 220.50200368 172.26073753 220.49632454 175.70735359 C220.49617359 177.32692658 220.50202506 178.94651408 220.51461601 180.56603813 C220.59847046 193.09460614 220.12732961 208.02100038 212.44042969 218.54248047 C206.25764295 224.7986223 197.23267452 225.15296964 189 226.125 C187.80632812 226.28097656 186.61265625 226.43695313 185.3828125 226.59765625 C181.2594391 227.11629261 177.1333056 227.56937301 173 228 C172.17171692 228.08933807 171.34343384 228.17867615 170.49005127 228.27072144 C153.59632024 230.04818248 136.75218772 230.34461515 119.78466797 230.31567383 C116.85547477 230.31105467 113.92669812 230.31794098 110.99755859 230.33618164 C76.20758442 230.55047112 42.50264529 226.95272754 8.625 218.625 C7.06048096 218.24166504 7.06048096 218.24166504 5.46435547 217.85058594 C-5.54068629 215.03797954 -16.1225579 211.46100431 -27 208 C-27 140.68 -27 73.36 -27 4 C-16.44715092 6.63821227 -9.19072608 16.77923395 -3.37109375 25.41796875 C-1.36368173 29.19830877 -0.71570266 33.09527661 0.15625 37.2578125 C1.03127244 40.10163543 1.57916549 41.30998345 4 43 C7.44515796 43.70848006 10.8335715 43.63965434 13.9375 41.9375 C16.58705115 37.10596556 16.2010723 32.99389412 14.9375 27.8125 C12.13115486 18.56806896 8.0898282 10.46878477 1.3203125 3.5234375 C0 2 0 2 0 0 Z " fill="#CA8151" transform="translate(292,238)"/>
<path d="M0 0 C0.639375 -0.01289062 1.27875 -0.02578125 1.9375 -0.0390625 C5.37617107 1.06808538 6.8408461 2.75975446 9 5.625 C9.588071 8.59356503 9.47655857 11.42639431 9.3125 14.4375 C9.27866211 15.61989258 9.27866211 15.61989258 9.24414062 16.82617188 C9.18554161 18.75993929 9.09586827 20.69272167 9 22.625 C10.2375 22.29886719 11.475 21.97273438 12.75 21.63671875 C37.8686427 15.22386617 63.21972327 13.39377206 89.0625 13.375 C90.51107895 13.37348938 90.51107895 13.37348938 91.98892212 13.37194824 C153.57831947 13.41519074 153.57831947 13.41519074 168.5625 26.9375 C169.7690625 28.2678125 169.7690625 28.2678125 171 29.625 C172.09290717 30.68580804 173.1881547 31.74420783 174.28515625 32.80078125 C198.6025788 57.08022266 210.42805841 94.23149954 214 127.625 C214.11085938 128.55828125 214.22171875 129.4915625 214.3359375 130.453125 C215.10504293 138.22732584 215.10208532 146.00623378 215.125 153.8125 C215.12967285 154.91754883 215.1343457 156.02259766 215.13916016 157.16113281 C215.10337509 175.52162491 215.10337509 175.52162491 213 177.625 C211.13971966 177.72150437 209.27572971 177.74687292 207.41294861 177.74525452 C206.19993576 177.74662918 204.98692291 177.74800385 203.7371521 177.74942017 C202.38067603 177.74588056 201.0242002 177.74224575 199.66772461 177.73852539 C198.24887596 177.73824352 196.83002716 177.73840124 195.41117859 177.7389679 C191.54771199 177.73925589 187.68427617 177.7333589 183.82081676 177.72639394 C179.78757427 177.72016067 175.75433115 177.71955662 171.72108459 177.71836853 C164.07834532 177.71525514 156.43562027 177.70704164 148.79288727 177.69701904 C140.09411981 177.68585816 131.39535169 177.68034752 122.69657886 177.67532361 C104.79771116 177.66485903 86.89885672 177.64725943 69 177.625 C72.20265715 174.39167947 75.45713424 171.36804495 78.9375 168.4375 C87.78956367 160.53528519 92.43125028 150.93247548 93.23828125 139.14453125 C93.50670487 125.73747786 90.18155731 115.38164295 81 105.46484375 C70.56446286 95.4951788 59.61142712 93.21730659 45.75 93.41796875 C33.50470255 93.8072011 24.07759325 99.69963069 15.71875 108.4921875 C9.39829813 116.33529368 4.85819926 125.36903159 1 134.625 C0.34 134.625 -0.32 134.625 -1 134.625 C-1.49628906 133.58601562 -1.99257812 132.54703125 -2.50390625 131.4765625 C-10.91301013 114.10775864 -19.47262638 101.05059572 -38.08984375 93.8125 C-48.66171905 90.59400097 -60.03769662 92.33374099 -70 96.625 C-82.10152599 103.31045841 -88.68305568 112.67416704 -93 125.625 C-94.38766279 139.91441367 -92.98243405 152.25953797 -83.7421875 163.75 C-81.06046313 166.63616076 -78.14964677 169.21722976 -75.1484375 171.765625 C-72.99424903 173.6299772 -71.00398524 175.60160951 -69 177.625 C-87.75799498 177.64832788 -106.51598703 177.66597863 -125.27399349 177.67681217 C-133.9830416 177.68197537 -142.69208071 177.68901851 -151.40112305 177.70043945 C-158.98913741 177.71038558 -166.57714526 177.71685326 -174.16516596 177.71908849 C-178.18547119 177.72039572 -182.20575778 177.72348234 -186.22605705 177.73073006 C-190.00573984 177.73748915 -193.7853962 177.73961719 -197.56508446 177.73810768 C-198.95630283 177.73838406 -200.34752203 177.74038985 -201.7387352 177.74420547 C-203.63013326 177.74914091 -205.52154532 177.74739798 -207.41294861 177.74525452 C-209.0044242 177.74663721 -209.0044242 177.74663721 -210.6280508 177.74804783 C-213 177.625 -213 177.625 -214 176.625 C-217.03172102 158.52068013 -215.60615168 138.71198302 -213 120.625 C-212.88172852 119.79758301 -212.76345703 118.97016602 -212.64160156 118.11767578 C-207.88597179 86.50423357 -195.52381726 58.05811579 -175 33.625 C-174.46632812 32.95726562 -173.93265625 32.28953125 -173.3828125 31.6015625 C-164.59970512 20.81608867 -151.84428414 18.400514 -138.625 16.4375 C-137.6040625 16.27314453 -136.583125 16.10878906 -135.53125 15.93945312 C-120.78298874 13.65698412 -106.07503112 13.42002599 -91.1875 13.4375 C-90.23635315 13.43810425 -89.2852063 13.4387085 -88.30523682 13.43933105 C-61.84756637 13.48489312 -34.34734694 14.31718553 -9 22.625 C-9.08701172 20.87123047 -9.08701172 20.87123047 -9.17578125 19.08203125 C-9.22269449 17.5338942 -9.26819298 15.98571383 -9.3125 14.4375 C-9.3753418 13.28411133 -9.3753418 13.28411133 -9.43945312 12.10742188 C-9.53106741 7.83819598 -9.38613155 6.1374052 -6.73046875 2.61328125 C-3.05705828 -0.06163424 -3.05705828 -0.06163424 0 0 Z " fill="#CA8252" transform="translate(256,43.375)"/>
<path d="M0 0 C10.48871278 8.64688706 17.60545349 19.34957504 23.11328125 31.7421875 C23.11328125 32.7321875 23.11328125 33.7221875 23.11328125 34.7421875 C23.77328125 34.7421875 24.43328125 34.7421875 25.11328125 34.7421875 C25.21382812 34.04609375 25.314375 33.35 25.41796875 32.6328125 C28.59927871 19.40714188 39.69651491 5.56855997 50.92578125 -2.0078125 C61.87900737 -8.29347067 75.5137656 -9.43325754 87.7265625 -6.34375 C99.67269587 -1.63815744 109.60872031 6.82610789 115.05078125 18.5546875 C119.18213626 28.25987062 120.11121411 40.77632587 116.11328125 50.7421875 C111.97599252 60.89607576 106.39637412 68.03535506 97.46069336 74.36938477 C96.83303574 74.81508316 96.20537811 75.26078156 95.55870056 75.71998596 C95.08171219 76.05731247 94.60472382 76.39463898 94.11328125 76.7421875 C94.94357692 76.73942212 95.77387259 76.73665674 96.62932873 76.73380756 C116.8264474 76.66757249 137.02354737 76.61791897 157.22075176 76.58675098 C166.98794643 76.571278 176.75506864 76.55018021 186.5222168 76.51586914 C195.03464503 76.48598002 203.54702079 76.46661564 212.05950004 76.45992202 C216.56736326 76.45600893 221.07507633 76.44680367 225.58289146 76.42499733 C229.82555326 76.40463988 234.068003 76.39835219 238.310709 76.40286446 C239.86796343 76.40203892 241.42522493 76.39606878 242.98243713 76.38457108 C245.10917258 76.36963812 247.23510811 76.37323622 249.36186218 76.38142395 C251.1469143 76.37727588 251.1469143 76.37727588 252.96802807 76.37304401 C257.07645795 76.85523099 259.86119566 78.205537 262.48828125 81.4296875 C263.4478538 84.98010594 263.03883736 88.20550967 262.11328125 91.7421875 C260.23714198 94.38583829 259.25604282 94.69460031 256.11328125 95.7421875 C253.50309218 95.82393727 250.92116475 95.84802932 248.31159973 95.82447815 C247.10719043 95.81963446 247.10719043 95.81963446 245.87844962 95.81469291 C243.17909114 95.80259739 240.47983336 95.78322875 237.78051758 95.76391602 C235.84906738 95.75377539 233.9176148 95.74408149 231.98616028 95.73480225 C226.73440647 95.70829958 221.48270808 95.67552446 216.23099732 95.64165235 C210.74570794 95.60733078 205.26038884 95.57873735 199.77507019 95.54954529 C189.38409935 95.49337107 178.99316574 95.43201955 168.6022355 95.36882395 C156.77411777 95.29713854 144.9459702 95.23120046 133.11781657 95.16575348 C108.78293275 95.03097567 84.44809551 94.88895318 60.11328125 94.7421875 C60.72308838 95.53665283 61.33289551 96.33111816 61.96118164 97.1496582 C62.77380956 98.21810256 63.58621637 99.28671512 64.3984375 100.35546875 C65.19386963 101.39743408 65.98930176 102.43939941 66.80883789 103.51293945 C72.81967978 111.93601453 77.33222799 121.06431178 76.98828125 131.5546875 C75.97386416 135.25006404 75.34659177 136.66955255 72.11328125 138.7421875 C68.85320048 139.25966064 67.18081133 139.51212533 64.11328125 138.7421875 C59.80859049 135.29843489 58.90726984 132.37274829 57.80078125 127.0546875 C55.43439455 116.38611728 47.80587315 108.07493487 39.11328125 101.7421875 C37.12158201 100.72575544 35.12232835 99.72388487 33.11328125 98.7421875 C33.1201947 100.44373631 33.1201947 100.44373631 33.12724781 102.17965984 C33.23817199 129.76225501 33.32037498 157.3448213 33.37234211 184.92759228 C33.39814006 198.26634969 33.43332118 211.60494224 33.49047852 224.94360352 C33.5402645 236.5675573 33.57256069 248.19140449 33.58372372 259.81546193 C33.59025055 265.97218824 33.60562395 272.12860956 33.64193153 278.28523827 C33.67581475 284.07758272 33.68634957 289.86949594 33.67881966 295.66193008 C33.68019762 297.7900419 33.69017543 299.91816782 33.70930862 302.04619408 C33.73412634 304.94829586 33.72822736 307.84876194 33.71455383 310.75090027 C33.73640014 312.01890332 33.73640014 312.01890332 33.75868779 313.31252259 C33.70330593 317.65053719 33.50641516 319.24920162 30.70460796 322.76263905 C28.19779063 324.67762967 27.19821226 325.42938369 24.11328125 325.3671875 C23.47390625 325.38007813 22.83453125 325.39296875 22.17578125 325.40625 C18.78542901 324.31465932 17.32037577 322.50986134 15.11328125 319.7421875 C14.39400993 316.74258316 14.45906925 313.82360861 14.51200867 310.75090027 C14.50560048 309.39079447 14.50560048 309.39079447 14.49906284 308.0032118 C14.4908253 304.96412278 14.51833083 301.92641308 14.5456543 298.88745117 C14.5470646 296.70940178 14.54627314 294.53135001 14.54344177 292.353302 C14.54200553 286.43828971 14.57142956 280.52378304 14.60631156 274.60888839 C14.6375401 268.42827518 14.64050305 262.24765075 14.6464386 256.06697083 C14.66198728 244.36204819 14.70302987 232.6573587 14.75318605 220.95253879 C14.80944843 207.62743525 14.83655798 194.30233071 14.86166322 180.97713506 C14.91394461 153.56535656 15.00190705 126.15378508 15.11328125 98.7421875 C14.00791016 99.36528809 12.90253906 99.98838867 11.76367188 100.63037109 C11.14190063 100.98086517 10.52012939 101.33135925 9.8795166 101.69247437 C-0.19612917 107.68065578 -7.0791849 116.92644088 -10.07421875 128.1171875 C-10.33589844 129.27992188 -10.59757813 130.44265625 -10.8671875 131.640625 C-11.99460839 135.0704035 -13.02363318 136.57524523 -15.88671875 138.7421875 C-18.63280093 139.47161558 -21.10927219 139.29539554 -23.88671875 138.7421875 C-27.05133386 136.71358807 -27.72823445 135.25990287 -28.82421875 131.6796875 C-29.01303281 119.78440157 -23.06572704 108.58444047 -15.76245117 99.54125977 C-15.0378923 98.64214371 -14.31333344 97.74302765 -13.56681824 96.81666565 C-13.01238541 96.13208786 -12.45795258 95.44751007 -11.88671875 94.7421875 C-12.89224132 94.75010661 -13.89776388 94.75802572 -14.93375683 94.76618481 C-39.38683999 94.95807478 -63.83999995 95.13257238 -88.29333782 95.28877544 C-100.11872947 95.36471743 -111.94403134 95.44633508 -123.76928711 95.54125977 C-134.07473973 95.62397022 -144.38020235 95.69608705 -154.68581706 95.75542003 C-160.14386244 95.78721552 -165.60175453 95.82435804 -171.05966759 95.87418175 C-176.19525786 95.92089581 -181.3307422 95.95346061 -186.46649742 95.9751091 C-188.35273879 95.98556616 -190.23895949 96.00122152 -192.12511063 96.02242851 C-194.69839824 96.05058813 -197.27110644 96.06012504 -199.8445282 96.06498718 C-200.59258986 96.07761666 -201.34065152 96.09024613 -202.11138171 96.10325831 C-206.55820128 96.08727527 -209.33255292 95.44674054 -212.88671875 92.7421875 C-215.04551073 90.09276097 -214.98150602 87.95902467 -214.69921875 84.6796875 C-214.30046995 82.15584217 -214.00770221 80.91266419 -212.51171875 78.8046875 C-208.89763382 76.44163197 -205.56228437 76.61869518 -201.37580872 76.62193298 C-200.71170996 76.62107856 -200.0476112 76.62022413 -199.36338824 76.61934382 C-197.13391449 76.61769422 -194.90451567 76.62320188 -192.67504883 76.62866211 C-191.07856752 76.62894412 -189.48208609 76.62878598 -187.88560486 76.6282196 C-183.54706658 76.62793217 -179.20855583 76.63382024 -174.87002397 76.64079356 C-170.3376417 76.64703602 -165.80525883 76.64763161 -161.27287292 76.64881897 C-152.68813626 76.65192964 -144.1034123 76.6601395 -135.51868123 76.67016846 C-125.74612702 76.68133776 -115.97357221 76.68684211 -106.20101321 76.69186389 C-86.09624129 76.70232231 -65.99148082 76.71991667 -45.88671875 76.7421875 C-46.89448364 75.95098511 -46.89448364 75.95098511 -47.92260742 75.14379883 C-48.81181885 74.4402124 -49.70103027 73.73662598 -50.6171875 73.01171875 C-51.49528076 72.31925049 -52.37337402 71.62678223 -53.27807617 70.91333008 C-61.36966618 64.17879476 -69.02017121 54.66543339 -70.07958984 43.75610352 C-70.60708618 28.95903205 -69.30783139 17.12411194 -58.88671875 5.7421875 C-43.21287491 -10.43944826 -18.6067915 -13.67446103 0 0 Z " fill="#F4EDC8" transform="translate(231.88671875,143.2578125)"/>
<path d="M0 0 C0.92683594 -0.00515625 1.85367187 -0.0103125 2.80859375 -0.015625 C5.73115952 0.26626787 7.87347422 1.11403819 10.5625 2.25 C10.54870348 31.10893769 10.5065221 59.96771253 10.43040943 88.82655621 C10.42351073 91.4923622 10.41665267 94.15816822 10.40991211 96.82397461 C10.40823305 97.48657954 10.40655398 98.14918446 10.40482404 98.83186833 C10.37980675 108.89597623 10.36942643 118.96003318 10.36694336 129.02416992 C10.36390699 140.70094528 10.34346045 152.37753706 10.30197543 164.05424148 C10.28061423 170.23885392 10.26806097 176.42320515 10.27634621 182.60785484 C10.2838664 188.42655939 10.26814578 194.24473381 10.23443985 200.06334114 C10.22618212 202.20108859 10.22648524 204.33888851 10.23590279 206.47663116 C10.24747648 209.39196638 10.22847987 212.30555023 10.20173645 215.2207489 C10.21774634 216.49458837 10.21774634 216.49458837 10.23407966 217.79416198 C10.15956012 222.13752274 9.95589355 223.75678687 7.15145397 227.27282429 C4.6460371 229.18620299 3.64570712 229.93716143 0.5625 229.875 C-0.076875 229.88789063 -0.71625 229.90078125 -1.375 229.9140625 C-4.76599658 228.82226436 -6.22944844 227.01832205 -8.4375 224.25 C-9.1670659 221.240054 -9.11551612 218.30628416 -9.07673645 215.2207489 C-9.08509213 214.30992815 -9.0934478 213.3991074 -9.10205668 212.46068603 C-9.12400842 209.40789083 -9.11037267 206.35629606 -9.09692383 203.3034668 C-9.10537533 201.11555568 -9.11601865 198.92765209 -9.12869263 196.73976135 C-9.15688711 190.79799363 -9.15435871 184.85658632 -9.14639878 178.9147718 C-9.14327812 172.70605097 -9.16829521 166.49744581 -9.19035339 160.28877258 C-9.22570686 149.19945245 -9.2397016 138.11024274 -9.24243762 127.02087001 C-9.24514824 116.95519802 -9.25940545 106.88961482 -9.28491211 96.82397461 C-9.28658549 96.16217521 -9.28825887 95.50037581 -9.28998295 94.81852188 C-9.29844253 91.49841077 -9.30711915 88.17830028 -9.31587565 84.85818994 C-9.38786602 57.32214071 -9.42433587 29.78613573 -9.4375 2.25 C-6.09230099 0.45842154 -3.82127421 -0.02119986 0 0 Z " fill="#CAB090" transform="translate(255.4375,238.75)"/>
<path d="M0 0 C0.73192566 -0.00817749 1.46385132 -0.01635498 2.21795654 -0.02478027 C4.64562155 -0.04963724 7.073228 -0.06615234 9.50097656 -0.08056641 C10.33012825 -0.08589008 11.15927994 -0.09121376 12.01355743 -0.09669876 C16.40356014 -0.12343364 20.79353439 -0.14280608 25.18359375 -0.15722656 C29.71437374 -0.17386147 34.24442449 -0.2186279 38.77492905 -0.26959801 C42.26142189 -0.30328642 45.74774212 -0.31480577 49.23438263 -0.32045364 C50.90413221 -0.32716342 52.57387054 -0.34237853 54.24346161 -0.36634445 C56.58478304 -0.39803077 58.9241447 -0.39802849 61.265625 -0.390625 C61.95156738 -0.40703033 62.63750977 -0.42343567 63.34423828 -0.44033813 C67.06264801 -0.39236989 69.43547107 0.25676218 72.32069397 2.50375366 C75.56987609 5.90233255 75.75089103 8.45956894 75.65332031 12.94287109 C75.656689 13.67860352 75.66005768 14.41433594 75.66352844 15.17236328 C75.66323048 16.72223935 75.64806432 18.27217574 75.61889648 19.82177734 C75.57920182 22.18689743 75.59819697 24.54640818 75.62402344 26.91162109 C75.61646364 28.42205939 75.60550944 29.93248531 75.59082031 31.44287109 C75.60129646 32.49619629 75.60129646 32.49619629 75.61198425 33.57080078 C75.50925586 37.16408803 75.03333901 39.00826803 72.82919312 41.87901306 C69.2370117 44.70847307 66.61598701 44.89674965 62.22729492 44.82397461 C61.47221146 44.83112991 60.71712799 44.83828522 59.93916321 44.84565735 C57.45263475 44.86251474 54.96791672 44.84316305 52.48144531 44.82177734 C50.74939322 44.82260624 49.01734121 44.8250664 47.28529358 44.8290863 C43.65959935 44.83194214 40.03452363 44.81726298 36.40893555 44.78979492 C31.76256597 44.75568659 27.11730032 44.76174059 22.47087765 44.7804575 C18.89602969 44.79102688 15.32143853 44.78209075 11.74661446 44.76707268 C10.03340988 44.76189164 8.32017849 44.76237173 6.60697746 44.76861763 C4.21290289 44.77407031 1.82040817 44.75369645 -0.57348633 44.72631836 C-1.2806076 44.73284424 -1.98772888 44.73937012 -2.71627808 44.74609375 C-6.10761299 44.68016888 -7.82326521 44.41879869 -10.51683044 42.28453064 C-14.43874387 37.13030054 -13.37038022 30.86241776 -13.40356445 24.64477539 C-13.42075495 22.39911536 -13.46463844 20.15493676 -13.50878906 17.90966797 C-13.51891844 16.47673607 -13.52743378 15.04379167 -13.53417969 13.61083984 C-13.54876221 12.30912842 -13.56334473 11.00741699 -13.57836914 9.66625977 C-13.03407487 5.64357164 -11.94734047 4.03247373 -9.10839844 1.19287109 C-6.17736754 -0.27264436 -3.21460167 0.01973093 0 0 Z " fill="#FEFEFE" transform="translate(66.1083984375,299.80712890625)"/>
<path d="M0 0 C0.66966042 -0.00282738 1.33932083 -0.00565475 2.02927399 -0.00856781 C5.58120589 -0.02340247 9.13309891 -0.0327277 12.68505859 -0.03710938 C15.55075002 -0.04146539 18.41613552 -0.05526793 21.28173828 -0.078125 C40.13986166 -0.22527516 58.5511487 0.57218383 77.265625 3.203125 C78.09731201 3.31732788 78.92899902 3.43153076 79.78588867 3.54919434 C84.41776043 4.19274105 89.02935638 4.92368483 93.640625 5.703125 C94.90777344 5.90292969 96.17492187 6.10273438 97.48046875 6.30859375 C98.69605469 6.51097656 99.91164063 6.71335937 101.1640625 6.921875 C102.75226807 7.18387695 102.75226807 7.18387695 104.37255859 7.45117188 C108.31690956 8.47637027 111.17379063 10.18407959 114.140625 12.953125 C115.86157212 16.39501923 115.30521243 18.564569 114.265625 22.203125 C112.140625 24.640625 112.140625 24.640625 109.265625 26.203125 C104.50404077 26.43991652 100.08017584 25.97672836 95.390625 25.1796875 C94.05992046 24.96078776 92.72919033 24.7420435 91.3984375 24.5234375 C89.36111215 24.18212061 87.32429493 23.83814959 85.28808594 23.49023438 C64.13630412 19.90020491 43.13574365 18.87067895 21.69628906 18.94238281 C17.90152953 18.95309422 14.10724525 18.94242154 10.3125 18.9296875 C-5.46272566 18.9204858 -21.03754334 19.63939042 -36.734375 21.203125 C-37.46470947 21.27462769 -38.19504395 21.34613037 -38.94750977 21.4197998 C-42.81955152 21.80423243 -46.68365461 22.23902856 -50.546875 22.703125 C-51.57361328 22.82042969 -52.60035156 22.93773437 -53.65820312 23.05859375 C-59.82673611 23.78247207 -65.93842297 24.69479635 -72.05566406 25.76953125 C-82.00547819 27.38007353 -82.00547819 27.38007353 -85.3984375 25.0703125 C-87.69234328 22.62262533 -88.69433436 20.39932413 -89.359375 17.140625 C-88.49574754 13.08157593 -86.94529094 11.81355796 -83.734375 9.203125 C-80.88111444 8.10383151 -77.99657975 7.62300966 -74.984375 7.140625 C-73.64995361 6.90702271 -73.64995361 6.90702271 -72.28857422 6.66870117 C-63.51609091 5.20026694 -54.68621151 4.09993144 -45.859375 3.015625 C-44.82665466 2.8884761 -44.82665466 2.8884761 -43.77307129 2.75875854 C-41.74257752 2.51182539 -39.71137406 2.27205985 -37.6796875 2.03515625 C-35.92422607 1.82983276 -35.92422607 1.82983276 -34.13330078 1.62036133 C-22.77038315 0.46714189 -11.41598218 0.03851509 0 0 Z " fill="#815333" transform="translate(379.734375,370.796875)"/>
<path d="M0 0 C1.30909332 -0.00167175 2.61818665 -0.00334351 3.96694946 -0.00506592 C24.0187311 -0.00659983 43.67084442 0.69665798 63.5625 3.25 C64.90539325 3.41240831 66.24841716 3.57373895 67.59155273 3.73413086 C75.18022478 4.64683422 82.73811964 5.63542491 90.25 7.0625 C91.08982422 7.20236328 91.92964844 7.34222656 92.79492188 7.48632812 C98.11553953 8.50158454 101.14485375 9.76176576 104.5625 14.25 C105.12128277 18.16147941 104.79432354 20.96099688 102.5625 24.25 C96.59105717 28.23096189 88.86129813 26.15599824 82.125 24.88671875 C54.53772989 20.03012022 26.80520259 18.84942015 -1.15588379 18.81609726 C-3.27501412 18.81256253 -5.39407293 18.80392077 -7.51318359 18.79434204 C-46.46720934 18.49889489 -46.46720934 18.49889489 -84.4375 26.25 C-89.22869284 26.87805899 -92.41525739 26.93844911 -96.5 24.1875 C-98.94245172 20.48442804 -99.1382844 18.61043626 -98.4375 14.25 C-96.84885296 11.21206092 -95.42916092 9.60812053 -92.16870117 8.43066406 C-89.20815298 7.71311695 -86.25124871 7.14711477 -83.25 6.625 C-82.14664307 6.4197168 -81.04328613 6.21443359 -79.90649414 6.00292969 C-53.31838014 1.21770971 -26.95377687 0.01815538 0 0 Z " fill="#815333" transform="translate(116.4375,370.75)"/>
<path d="M0 0 C4.17997787 1.04499447 5.79919714 2.18757411 9.0625 4.875 C9.91972656 5.57367188 10.77695312 6.27234375 11.66015625 6.9921875 C12.43230469 7.65476563 13.20445312 8.31734375 14 9 C14.53581853 9.37550145 15.07163706 9.7510029 15.62369251 10.13788319 C17.80332815 13.0868871 17.40163102 16.27597507 17.36076355 19.80168152 C17.36332682 20.60462106 17.3658901 21.40756059 17.36853105 22.23483163 C17.37348564 24.93434444 17.35694863 27.6333021 17.34057617 30.33276367 C17.33973026 32.26421597 17.34020434 34.19566924 17.34190369 36.12712097 C17.34276647 41.37892598 17.32509493 46.63052655 17.30418181 51.88228393 C17.28546212 57.3675825 17.28366829 62.85288547 17.28010559 68.33821106 C17.27077127 78.72920129 17.24613871 89.12009714 17.21605712 99.51104575 C17.18255626 111.33917204 17.16603796 123.16730278 17.15097082 134.99546468 C17.11959038 159.33036217 17.06680293 183.6651758 17 208 C10.67734974 207.42521361 6.26496991 206.0883233 0 204 C0 136.68 0 69.36 0 0 Z " fill="#A56A43" transform="translate(265,242)"/>
<path d="M0 0 C0 67.32 0 134.64 0 204 C-12 208 -12 208 -17 208 C-17.25713394 182.61776232 -17.45102191 157.23572026 -17.56993389 131.85244179 C-17.62661843 120.06606087 -17.70387709 108.28048989 -17.82983398 96.49462891 C-17.9395856 86.22019509 -18.01046649 75.94634789 -18.03497344 65.67134416 C-18.04929634 60.23205771 -18.08287415 54.79444921 -18.16303062 49.35570145 C-18.23793258 44.23176543 -18.26068226 39.11019124 -18.24418449 33.98575974 C-18.24720048 32.10958752 -18.26894848 30.23333297 -18.31126022 28.3576355 C-18.63032302 13.47836455 -18.63032302 13.47836455 -14.57264137 8.67014694 C-11.96239536 6.07602346 -9.09435181 3.99315839 -6 2 C-3 0 -3 0 0 0 Z " fill="#A56A43" transform="translate(247,242)"/>
<path d="M0 0 C60.06 0 120.12 0 182 0 C190 14 190 14 190 18 C166.94754066 18.3038768 143.89541215 18.53301971 120.84135532 18.67355824 C110.13647518 18.74055219 99.43284042 18.83185947 88.72875977 18.98071289 C79.39738549 19.11041512 70.06691311 19.19418554 60.73466247 19.22315043 C55.79412057 19.24007981 50.85615838 19.27976328 45.91644478 19.37449074 C41.26248238 19.46301192 36.61215039 19.48990152 31.95742607 19.47039986 C30.25330711 19.47396467 28.5490618 19.49967708 26.84567261 19.54967117 C14.28110031 19.90022351 14.28110031 19.90022351 10.4414165 16.7016542 C7.30693652 13.15564771 5.22185375 9.15057144 3 5 C2.01782054 3.98249152 1.02462601 2.97475204 0 2 C0 1.34 0 0.68 0 0 Z " fill="#A56B44" transform="translate(292,238)"/>
<path d="M0 0 C0.74083183 -0.00085442 1.48166365 -0.00170885 2.24494493 -0.00258917 C4.74009288 -0.00424302 7.23517436 0.00127586 9.73031616 0.00672913 C11.51383971 0.00701104 13.29736337 0.00685317 15.08088684 0.00628662 C19.93392952 0.00599883 24.78694765 0.01189266 29.63998461 0.01886058 C34.70755929 0.02509711 39.77513448 0.02569815 44.8427124 0.02688599 C54.44391998 0.02999842 64.04511622 0.03821062 73.64631879 0.04823548 C84.57481351 0.05939934 95.50330876 0.06490776 106.43180776 0.06993091 C128.9172218 0.0803933 151.40262577 0.09799105 173.88803101 0.12025452 C172.4851782 3.00310581 170.97931632 5.45844082 169.01303101 7.99525452 C167.17572675 10.37124483 165.66014125 12.54741493 164.23839188 15.2123661 C161.88803101 18.12025452 161.88803101 18.12025452 158.61594772 18.85854149 C156.65252867 18.85024535 156.65252867 18.85024535 154.64944458 18.84178162 C153.55400955 18.84947144 153.55400955 18.84947144 152.43644452 18.85731661 C149.98809432 18.86720417 147.54220865 18.83419909 145.09408569 18.80140686 C143.339824 18.79971451 141.58555805 18.80066423 139.83129883 18.80406189 C135.06685345 18.80578549 130.30331187 18.77047665 125.53907681 18.72861814 C120.56097924 18.69114481 115.58286162 18.68758847 110.60464478 18.6804657 C101.17684735 18.66180685 91.7494667 18.61255573 82.32185292 18.55236876 C71.58925423 18.48533598 60.85663578 18.45232275 50.12387991 18.42219615 C28.04503087 18.35945763 5.96655717 18.25390236 -16.11196899 18.12025452 C-15.44260366 13.5933034 -14.41732085 10.31637238 -12.17446899 6.30775452 C-11.64982056 5.3525592 -11.12517212 4.39736389 -10.58462524 3.41322327 C-7.8980928 -0.76978613 -4.5336016 -0.01890748 0 0 Z " fill="#A56B44" transform="translate(46.111968994140625,237.87974548339844)"/>
<path d="M0 0 C1.60955605 -0.00294397 3.21910893 -0.00893267 4.8286438 -0.0177002 C9.15914202 -0.03239962 13.48834342 -0.00389619 17.81866264 0.03373289 C22.36463885 0.0665609 26.91059213 0.06164096 31.45666504 0.06167603 C39.07907773 0.06722191 46.70099788 0.09940937 54.32324219 0.14941406 C63.13092806 0.20702598 71.93814601 0.22973302 80.74600935 0.23229825 C90.14359076 0.23522216 99.54100066 0.26101761 108.93851662 0.29486513 C111.64081171 0.3032172 114.34308964 0.3075685 117.0453949 0.31113815 C121.28751487 0.31804551 125.52928392 0.34047065 129.77126694 0.37490845 C131.3268823 0.38526138 132.88254065 0.39057166 134.43819046 0.39046097 C136.56214475 0.39122921 138.6851587 0.41045082 140.80895996 0.43441772 C141.99685875 0.44074408 143.18475754 0.44707043 144.40865326 0.45358849 C148.50480814 0.96061814 151.30161702 2.31161698 153.92382812 5.52978516 C154.88340068 9.0802036 154.47438424 12.30560733 153.54882812 15.84228516 C151.67268885 18.48593595 150.69158969 18.79469797 147.54882812 19.84228516 C144.93364681 19.94440127 142.34483683 19.99009423 139.72937012 19.98945618 C138.52201053 19.99497121 138.52201053 19.99497121 137.29025984 20.00059766 C134.58412515 20.01164039 131.87802885 20.01547927 129.171875 20.01928711 C127.23543678 20.02555109 125.29899977 20.03219783 123.36256409 20.03919983 C118.09618352 20.05661037 112.82981202 20.06716079 107.56340981 20.07540536 C104.27599046 20.08055323 100.98857396 20.08662892 97.70115662 20.09291649 C87.42342946 20.11196493 77.1457095 20.1261993 66.86796808 20.13452846 C54.98845773 20.14431397 43.10913305 20.1706692 31.22968817 20.21102935 C22.05598205 20.24113221 12.88232935 20.2559916 3.70857477 20.25930947 C-1.7750608 20.26166576 -7.25849792 20.27070171 -12.74208069 20.29577065 C-17.89669932 20.31895587 -23.05098746 20.3233233 -28.20564461 20.31300926 C-30.10076557 20.31251153 -31.99590228 20.31890141 -33.89097404 20.33256531 C-36.4716229 20.3501364 -39.05106638 20.34325214 -41.63171387 20.33003235 C-42.3874458 20.34100159 -43.14317773 20.35197084 -43.92181063 20.36327249 C-49.00275721 20.30011766 -49.00275721 20.30011766 -51.439888 17.81180096 C-51.77361168 17.16186074 -52.10733536 16.51192053 -52.45117188 15.84228516 C-51.82251221 15.63659912 -51.19385254 15.43091309 -50.54614258 15.21899414 C-47.61436768 14.25174708 -44.68916993 13.26584689 -41.76367188 12.27978516 C-40.28157227 11.79541992 -40.28157227 11.79541992 -38.76953125 11.30126953 C-33.26579346 9.43106737 -28.52393832 7.32037265 -23.58557129 4.24282837 C-15.79516778 0.01597837 -8.61063828 -0.12288662 0 0 Z " fill="#CBB292" transform="translate(340.451171875,219.15771484375)"/>
<path d="M0 0 C0.99781531 -0.00763173 0.99781531 -0.00763173 2.0157885 -0.01541764 C4.24953219 -0.03113984 6.48324353 -0.03966665 8.71702576 -0.04811096 C10.31698817 -0.05764984 11.91694852 -0.06754102 13.51690674 -0.07775879 C18.77686616 -0.10914773 24.0368414 -0.12941482 29.29685974 -0.14796448 C30.19233355 -0.1512618 31.08780736 -0.15455912 32.01041675 -0.15795636 C40.45945005 -0.18874355 48.90848696 -0.21544574 57.35756016 -0.23237514 C68.15524067 -0.25426539 78.95242289 -0.29619906 89.74990422 -0.36581272 C97.34665825 -0.41312181 104.9432782 -0.43731812 112.5401749 -0.44457203 C117.0745965 -0.44951894 121.60845653 -0.46450717 126.14271736 -0.50431633 C130.41353449 -0.54131734 134.68347249 -0.54954875 138.95442009 -0.5363102 C140.51605124 -0.53636393 142.07772266 -0.54657129 143.63920593 -0.56806183 C153.19532666 -0.69247613 159.6645512 0.39111115 167.48045349 6.16062927 C175.82589976 9.97956752 184.68668336 12.58438565 193.48045349 15.16062927 C191.08925702 18.28441467 189.90103607 19.10114414 185.9412241 19.66120052 C184.49168471 19.68188938 183.04173046 19.68045935 181.59216309 19.66183472 C180.39176389 19.67013631 180.39176389 19.67013631 179.1671142 19.67860562 C176.48226476 19.69223217 173.79834172 19.67723234 171.11351013 19.66233826 C169.19001876 19.66612074 167.26653011 19.6716202 165.3430481 19.67871094 C160.11572778 19.69269296 154.88873561 19.68147603 149.66143346 19.66499972 C144.19448277 19.6511658 138.72755146 19.65760749 133.2605896 19.66113281 C124.07804568 19.66383647 114.89563235 19.65034667 105.71311951 19.62718201 C95.09418199 19.60057925 84.47546296 19.5988221 73.85650355 19.61057037 C63.64656022 19.6213474 53.436696 19.61516114 43.22675896 19.60101509 C38.87956817 19.59525385 34.53243525 19.59533909 30.18524361 19.60008049 C25.06590118 19.60485061 19.94679818 19.59474701 14.8275013 19.57312584 C12.94775195 19.567558 11.06797959 19.56709264 9.18822861 19.5720787 C6.62379531 19.57802813 4.0600948 19.56553313 1.49572754 19.54830933 C0.75039436 19.55431937 0.00506118 19.56032942 -0.76285785 19.56652158 C-5.19102214 19.51237553 -7.97658392 18.84759126 -11.51954651 16.16062927 C-13.67833849 13.51120275 -13.61433377 11.37746645 -13.33204651 8.09812927 C-12.93329771 5.57428395 -12.64052997 4.33110596 -11.14454651 2.22312927 C-7.53857131 -0.13462374 -4.17898742 0.02405612 0 0 Z " fill="#CBB292" transform="translate(30.519546508789063,219.83937072753906)"/>
<path d="M0 0 C6.78079282 3.86233959 12.05723594 9.29670781 14.5625 16.8125 C15.337883 26.70181102 14.87651282 34.08680793 8.85546875 42.078125 C-4.6801145 57.29595091 -28.10743466 62.19399996 -47.4375 64.8125 C-48.7575 64.8125 -50.0775 64.8125 -51.4375 64.8125 C-53.26740876 47.44869906 -46.3191912 25.73614752 -36 11.75 C-26.49705285 0.63133924 -14.61513575 -6.91492243 0 0 Z " fill="#CB8252" transform="translate(317.4375,155.1875)"/>
<path d="M0 0 C13.19242671 7.5777299 20.24402377 21.4368113 24.53613281 35.59277344 C25.23842669 38.1986275 25.8846932 40.80978372 26.5 43.4375 C26.7168042 44.35039795 26.9336084 45.2632959 27.15698242 46.20385742 C28.5853393 52.51594691 29.43330816 58.51616475 28.75 65 C8.35930685 64.63409849 -14.8887215 58.38115341 -29.875 43.75 C-35.6126772 37.69426974 -37.49201574 33.00473 -37.8125 24.5625 C-37.5668222 16.58193398 -35.80243432 11.79025419 -30.3828125 6.0078125 C-21.75966404 -2.07848625 -11.1152991 -5.06953549 0 0 Z " fill="#CB8252" transform="translate(217.25,155)"/>
<path d="M0 0 C1.41172596 0.00553076 1.41172596 0.00553076 2.85197163 0.01117325 C3.93310734 0.00567459 5.01424305 0.00017593 6.12814045 -0.00548935 C7.9073035 0.01608231 7.9073035 0.01608231 9.72240925 0.03808975 C10.97130436 0.03750565 12.22019947 0.03692154 13.50693989 0.03631973 C16.93264995 0.03863103 20.35739884 0.05870634 23.78293872 0.08661556 C27.3623683 0.1116009 30.94181034 0.11396893 34.52131367 0.11871719 C41.29995364 0.13115548 48.07833593 0.16398838 54.85686237 0.20411515 C62.57379827 0.24880653 70.2907464 0.27081323 78.00777948 0.29089689 C93.88261331 0.33272047 109.75718998 0.40308881 125.63183308 0.49219131 C125.49163616 3.30507837 125.34495353 6.11736017 125.19433308 8.92969131 C125.15501667 9.73213272 125.11570026 10.53457413 125.07519245 11.36133194 C124.74511433 17.37891006 124.74511433 17.37891006 123.63183308 18.49219131 C121.77155273 18.58869568 119.90756278 18.61406423 118.04478168 18.61244583 C116.83176884 18.6138205 115.61875599 18.61519516 114.36898518 18.61661148 C113.0125091 18.61307188 111.65603328 18.60943706 110.29955769 18.60571671 C108.88070903 18.60543484 107.46186023 18.60559256 106.04301167 18.60615921 C102.17954507 18.6064472 98.31610925 18.60055022 94.45264983 18.59358525 C90.41940735 18.58735198 86.38616423 18.58674794 82.35291767 18.58555984 C74.71017839 18.58244645 67.06745335 18.57423295 59.42472035 18.56421036 C50.72595289 18.55304947 42.02718477 18.54753883 33.32841194 18.54251492 C15.42954424 18.53205035 -2.4693102 18.51445075 -20.36816692 18.49219131 C-16.27611238 14.37237811 -12.03763201 10.5032572 -7.67285442 6.67578506 C-5.34819639 4.65596432 -5.34819639 4.65596432 -4.05038261 2.38578033 C-2.36816692 0.49219131 -2.36816692 0.49219131 0 0 Z " fill="#A66B44" transform="translate(345.36816692352295,202.50780868530273)"/>
<path d="M0 0 C16.53345196 -0.23397069 33.06636415 -0.41012071 49.60107327 -0.51812172 C57.27912794 -0.56960988 64.95615198 -0.63975716 72.63354492 -0.75439453 C79.32803225 -0.85430739 86.02177306 -0.91863745 92.71698529 -0.94088495 C96.26004793 -0.95388409 99.80097568 -0.98425505 103.34335136 -1.05730057 C107.30538724 -1.13833117 111.26536648 -1.13988427 115.22827148 -1.13525391 C116.39280853 -1.17120667 117.55734558 -1.20715942 118.75717163 -1.24420166 C123.64937317 -1.18246827 126.75913472 -1.0263582 130.61113167 2.15974808 C132.98182678 4.81704712 132.98182678 4.81704712 134.98587132 7.45568275 C137.67710239 10.85533923 140.86192916 13.19029041 144.34765625 15.72265625 C144.89292969 16.14417969 145.43820313 16.56570312 146 17 C146 17.33 146 17.66 146 18 C127.24200502 18.02332788 108.48401297 18.04097863 89.72600651 18.05181217 C81.0169584 18.05697537 72.30791929 18.06401851 63.59887695 18.07543945 C56.01086259 18.08538558 48.42285474 18.09185326 40.83483404 18.09408849 C36.81452881 18.09539572 32.79424222 18.09848234 28.77394295 18.10573006 C24.99426016 18.11248915 21.2146038 18.11461719 17.43491554 18.11310768 C16.04369717 18.11338406 14.65247797 18.11538985 13.2612648 18.11920547 C11.36986674 18.12414091 9.47845468 18.12239798 7.58705139 18.12025452 C5.9955758 18.12163721 5.9955758 18.12163721 4.3719492 18.12304783 C2 18 2 18 1 17 C0.76298761 14.14122091 0.57780818 11.30116703 0.4375 8.4375 C0.39431641 7.63119141 0.35113281 6.82488281 0.30664062 5.99414062 C0.20024738 3.99631195 0.09959112 1.9981793 0 0 Z " fill="#A66B44" transform="translate(41,203)"/>
<path d="M0 0 C0.639375 -0.01289062 1.27875 -0.02578125 1.9375 -0.0390625 C5.39961518 1.07563368 6.77798633 2.74782812 9 5.625 C9.76287208 9.18012259 9.71392528 12.68627153 9.69458008 16.31176758 C9.70816055 17.3889505 9.72174103 18.46613342 9.73573303 19.57595825 C9.77305533 23.14082376 9.77306076 26.70448748 9.76953125 30.26953125 C9.78052431 32.75754767 9.79255877 35.24555969 9.80558777 37.73356628 C9.82651304 42.95654235 9.82776737 48.17909761 9.81665039 53.40209961 C9.80264995 60.05865778 9.85227827 66.71353776 9.91611195 73.3698473 C9.95694976 78.51503353 9.96045044 83.6597661 9.95371056 88.80508995 C9.95590205 91.25644016 9.97062519 93.70781532 9.99866676 96.15900612 C10.14791968 110.90712776 9.29570546 122.14423456 1 134.625 C0.34 134.625 -0.32 134.625 -1 134.625 C-10.02951267 121.04023252 -10.13944333 108.46467357 -9.95703125 92.51953125 C-9.95479748 90.02089022 -9.95539096 87.52224523 -9.95866394 85.02360535 C-9.95693101 79.81988997 -9.92807486 74.61728987 -9.87817383 69.41381836 C-9.81545117 62.74413883 -9.81095784 56.07658396 -9.8251543 49.40677357 C-9.83155834 44.26202265 -9.81283563 39.11761181 -9.78589439 33.97293663 C-9.77502345 31.51255991 -9.7707365 29.05214491 -9.77317238 26.59174538 C-9.77174705 23.16436298 -9.7377866 19.73884444 -9.69458008 16.31176758 C-9.6999881 15.29824722 -9.70539612 14.28472687 -9.71096802 13.24049377 C-9.61769955 8.51220769 -9.5497595 6.33685546 -6.585495 2.49858093 C-4.09143198 0.69125625 -3.02123251 -0.06091195 0 0 Z " fill="#CAB191" transform="translate(256,43.375)"/>
<path d="M0 0 C6.69967891 -0.43693558 9.93056974 0.87917092 17 3 C17 34.02 17 65.04 17 97 C13.79314699 93.79314699 10.88180642 90.56054177 7.9765625 87.09765625 C5.96618889 84.81894861 5.96618889 84.81894861 2.91903687 82.86335754 C0.19734192 80.59753541 0.01933855 80.09751682 -0.7215271 76.36161804 C-0.73880273 74.93732756 -0.7232204 73.51239694 -0.68115234 72.08862305 C-0.6820285 71.30760727 -0.68290466 70.52659149 -0.68380737 69.72190857 C-0.67964059 67.15081325 -0.63303696 64.5823558 -0.5859375 62.01171875 C-0.574742 60.22525966 -0.56620348 58.4387821 -0.56021118 56.65229797 C-0.53734048 51.95825018 -0.47843309 47.26532257 -0.4119873 42.57171631 C-0.35052641 37.77908481 -0.32318808 32.98627167 -0.29296875 28.19335938 C-0.2286876 18.79508169 -0.12632987 9.39763412 0 0 Z " fill="#A56A43" transform="translate(230,63)"/>
<path d="M0 0 C0.23228351 10.27477947 0.40967297 20.54892889 0.51812172 30.82580471 C0.57018888 35.5986027 0.64073487 40.36959735 0.75439453 45.14135742 C0.86351249 49.75159816 0.92293489 54.36011136 0.94877243 58.97154427 C0.96716958 60.725558 1.00309913 62.47948305 1.05730057 64.23275566 C1.46537673 77.98716499 1.46537673 77.98716499 -2.1675415 82.97732544 C-4.83837891 85.36352539 -4.83837891 85.36352539 -7.49893188 87.23182678 C-10.76243155 89.53901412 -12.70047216 92.30975133 -14.94140625 95.56640625 C-15.29074219 96.03949219 -15.64007813 96.51257813 -16 97 C-16.33 97 -16.66 97 -17 97 C-17 65.98 -17 34.96 -17 3 C-4.625 -0.375 -4.625 -0.375 0 0 Z " fill="#A56A43" transform="translate(282,63)"/>
<path d="M0 0 C8.60247575 8.60247575 12.2194388 20.38871179 15 32 C15.33837891 33.34384766 15.33837891 33.34384766 15.68359375 34.71484375 C17.08608747 40.83745428 17.2143308 46.7367778 17 53 C-0.21469849 52.69109024 -22.3350403 48.6649597 -35 36 C-23.45 36 -11.9 36 0 36 C0 24.12 0 12.24 0 0 Z " fill="#A76D45" transform="translate(229,167)"/>
<path d="M0 0 C0.33 0 0.66 0 1 0 C1 11.88 1 23.76 1 36 C12.55 36 24.1 36 36 36 C32.28086428 39.71913572 29.32082197 41.52278233 24.625 43.5 C23.91456543 43.80188232 23.20413086 44.10376465 22.47216797 44.41479492 C9.84086502 49.65789761 -2.46773256 51.83395428 -16 53 C-17.72321963 36.64856039 -11.5802633 15.34547732 -1.84765625 2.0625 C-0.93306641 1.0415625 -0.93306641 1.0415625 0 0 Z " fill="#A76C45" transform="translate(282,167)"/>
</svg>
